<?xml version="1.0" encoding="UTF-8"?>
<svg id="Layer_1" data-name="Layer 1" xmlns="http://www.w3.org/2000/svg" xmlns:xlink="http://www.w3.org/1999/xlink" viewBox="0 0 1298 1226">
  <defs>
    <style>
      .cls-1 {
        fill: url(#linear-gradient);
      }

      .cls-1, .cls-2, .cls-3, .cls-4, .cls-5, .cls-6, .cls-7, .cls-8 {
        stroke-width: 0px;
      }

      .cls-2 {
        fill: #2a3e98;
      }

      .cls-3 {
        fill: #585858;
      }

      .cls-4 {
        fill: #1d272d;
      }

      .cls-5 {
        fill: #1f1f1f;
      }

      .cls-6 {
        fill: #ff2127;
      }

      .cls-7 {
        fill: #ff2429;
      }

      .cls-8 {
        fill: #fff;
      }
    </style>
    <linearGradient id="linear-gradient" x1="0" y1="613" x2="1298" y2="613" gradientUnits="userSpaceOnUse">
      <stop offset="0" stop-color="#1d1d1f"/>
      <stop offset="1" stop-color="#025599"/>
    </linearGradient>
  </defs>
  <path class="cls-3" d="M622.02,0h54.49c6.75.48,13.51.84,20.28,1.08,5.67.19,10.79.58,15.36,1.16,5.11.65,10.21,1.33,15.31,2.03,1.53.21,2.63,1.16,4.21,1.36,14.86,1.92,29.25,3.75,44.38,6.91,10.61,2.22,20.93,4.33,30.96,6.33,6.67,1.33,13.14,2.91,19.39,4.74,11.59,3.39,23.52,6.9,35.78,10.52,6.33,1.87,12.61,4.06,18.86,6.58,16.83,6.79,33.61,12.95,49.77,20.57,16.72,7.87,31.62,15.21,44.7,22,6.04,3.14,19.5,10.99,40.39,23.54,5.53,3.31,10.94,6.97,16.25,10.97,12.67,9.55,25.65,18.92,37.81,28.82,9.75,7.93,19.56,16.02,29.43,24.26,6.87,5.73,12.52,11,16.94,15.8,11.42,12.4,22.89,24.24,33.51,36.67,10.96,12.83,19.96,23.52,27.01,32.06,4.63,5.61,9.63,12.7,15.01,21.26,7.8,12.42,17.5,25.9,24.82,39.62,5.08,9.52,10.16,18.93,15.23,28.22,3.41,6.25,6.38,12.2,8.92,17.83,6.23,13.81,12.2,27.19,17.93,40.16,1.01,2.29,1.94,4.79,2.79,7.52,3.47,11.15,7.09,22.24,10.86,33.28,2.3,6.74,4.14,13.13,5.51,19.16,3.18,13.99,6.31,27.85,9.38,41.59.63,2.85,1.13,5.58,1.49,8.21,1.55,11.18,3.18,22.35,4.9,33.51,1.46,9.48,2.31,17.48,2.54,23.99.44,12.19,1.03,24.38,1.77,36.55v13.05c-.84,13.54-1.51,27.09-2.01,40.65-.07,1.93-.22,3.77-.44,5.5-1.54,12.23-3.37,24.55-5.2,37.26-3,20.92-8.34,42.4-13,62.27-1.53,6.53-3.34,12.92-5.44,19.17-4.2,12.49-8.52,25.27-12.97,38.33-.75,2.19-1.72,4.63-2.92,7.32-4.55,10.19-9.22,20.61-14,31.28-2.89,6.45-5.8,12.41-8.73,17.86-5.89,10.97-11.89,22.04-18,33.21-7.41,13.55-16.65,26.51-24.89,39.4-5.04,7.89-9.46,14.1-13.25,18.65-12.45,14.92-24.92,30.34-38.27,44.75-7.35,7.93-14.71,15.87-22.07,23.8-5.35,5.77-11.05,11.15-17.12,16.15-9.26,7.63-18.53,15.26-27.8,22.88-14.02,11.53-28.7,22.11-43.32,32.98-5.28,3.93-10.78,7.53-16.49,10.8-13.64,7.82-27.61,16.54-41.49,23.71-15.13,7.82-29.65,14.48-44.73,21.78-2.23,1.09-4.51,2.09-6.83,3-13.57,5.33-27.39,10.9-41.46,16.69-4.54,1.87-9.08,3.34-13.75,4.7-11.57,3.37-24.91,7.26-40.01,11.67-6.69,1.95-15.57,4.03-26.65,6.22-18.06,3.59-34.88,7.29-52.81,9.43-8.74,1.04-17.47,2.15-26.18,3.34-6.78.93-13.41,1.54-19.9,1.85-14.29.67-28.58,1.34-42.88,2h-12.94c-14.73-.79-29.46-1.5-44.2-2.12-3.44-.14-6.9-.25-10.31-.71-15.03-2.03-30.09-3.98-45.18-5.87-4.49-.56-8.66-1.25-12.51-2.06-12.38-2.61-25.04-5.21-37.99-7.78-6.95-1.39-13.56-2.99-19.84-4.81-14.33-4.15-28.48-8.35-42.45-12.6-3.69-1.12-7.92-2.65-12.71-4.6-9.94-4.04-20.16-8.15-30.67-12.33-6.54-2.61-12.65-5.25-18.34-7.92-12.27-5.77-24.37-11.62-36.3-17.53-16.28-8.07-32.13-17.94-47.59-27.07-5.78-3.41-11.33-7.09-16.65-11.03-9.09-6.73-18.38-13.69-27.86-20.89-14.78-11.21-28.92-23.29-42.96-35.03-6.29-5.27-11.74-10.42-16.36-15.47-10.49-11.49-22-23.41-32.12-35.25-9.73-11.37-19.39-22.83-29-34.37-1.89-2.27-3.56-4.52-5.01-6.73-7.54-11.48-15.1-23.05-22.69-34.71-3.66-5.63-7.07-11.35-10.23-17.17-5.73-10.55-11.17-20.59-16.32-30.13-3.23-5.98-6.17-11.93-8.8-17.86-4.77-10.75-9.86-22.14-15.29-34.17-2-4.44-3.94-9.67-5.83-15.69-3.13-9.99-6.46-20.25-10-30.79-2.09-6.21-3.82-12.32-5.19-18.34-2.47-10.82-4.95-21.64-7.42-32.46-1.61-7.04-2.85-13.56-3.74-19.56-2.06-13.95-4.02-27.41-5.88-40.38-.48-3.35-.81-6.95-.99-10.82-.64-14.25-1.31-28.51-2.02-42.76v-6.09c.71-14.88,1.39-29.76,2.04-44.65.14-3.36.45-6.73.93-10.12,3.18-22.65,5.54-38.52,7.09-47.63.74-4.35,1.79-9.43,3.14-15.25,2.82-12.15,5.59-24.32,8.31-36.5.47-2.09,1.11-4.38,1.94-6.87,5.17-15.63,10.29-30.87,15.34-45.72.73-2.17,1.8-4.81,3.19-7.94,5.17-11.63,10.39-23.25,15.66-34.84,2.72-5.97,5.7-11.93,8.94-17.88,8.15-14.96,15.92-30.34,25.11-44.6,7.95-12.33,16-24.59,24.17-36.77,1.13-1.69,2.43-3.4,3.88-5.13,9.17-10.89,18.34-21.78,27.51-32.65,3.89-4.61,8.32-9.59,13.3-14.94,7.78-8.36,15.12-16.25,22.01-23.66,3.85-4.14,8.17-8.22,12.97-12.25,10.08-8.46,20.23-16.87,30.46-25.23,14.52-11.87,29.79-22.96,44.84-34.19,2.22-1.66,5.48-3.9,8.38-5.59,10.25-6.02,20.62-12.11,31.09-18.28,6.25-3.68,12.09-6.91,17.51-9.68,14.33-7.32,24.53-11.88,36.64-17.87,6.11-3.02,11.76-5.57,16.93-7.64,14.1-5.66,28.55-11.5,43.36-17.52,1.67-.68,5.68-1.93,12.02-3.74,12.93-3.7,25.83-7.49,38.7-11.36,2.97-.89,6.31-1.73,10.01-2.51,15.42-3.25,30.84-6.36,46.26-9.32,10.72-2.06,22.78-3.37,34.2-4.97,1.86-.26,3.07-1.22,4.83-1.42,4.73-.55,9.42-1.16,14.07-1.81,4.29-.61,8.73-1,13.32-1.17C606.11.9,614.07.5,622.02,0ZM622.52,33.2c-16.53.42-27.04.94-31.52,1.56-12.71,1.76-25.66,3.48-38.85,5.16-6.8.87-13.37,1.94-19.72,3.23-11.46,2.31-22.93,4.65-34.4,7.02-6.46,1.33-12.92,2.95-19.38,4.84-10.72,3.14-21.44,6.28-32.17,9.42-4.91,1.32-8.19,2.3-9.83,2.95-17.48,6.91-34.88,13.97-52.21,21.19-12.75,6.23-25.49,12.46-38.22,18.69-1.59.78-3.7,1.48-5.3,2.39-6.93,3.96-16.18,9.38-27.73,16.26-4.17,2.45-8.34,4.89-12.51,7.33-4.19,2.45-8.21,5.12-12.06,8-14.92,11.17-29.87,21.86-44.07,33.66-10.21,8.48-20.3,16.85-30.28,25.11-1.83,1.52-3.11,2.67-3.82,3.44-9.44,10.17-18.77,20.21-28,30.12-12.08,12.98-23.4,27.07-34.64,40.42-3.59,4.27-6.93,8.76-10.01,13.45-5.88,8.96-11.79,17.95-17.73,26.97-3.69,5.59-7.11,11.29-10.28,17.12-5.1,9.39-10.2,18.79-15.3,28.18-3.19,5.86-6.15,11.83-8.88,17.91-4.13,9.19-8.27,18.38-12.4,27.57-2.96,6.59-5.31,12.49-7.06,17.72-3.81,11.43-7.51,22.8-11.08,34.11-1.92,6.06-3.6,12.39-5.04,18.98-1.77,8.1-3.64,16.35-5.59,24.75-1.67,7.17-2.94,13.73-3.81,19.68-1.59,10.88-3.23,22.16-4.92,33.84-.91,6.31-1.51,12.8-1.79,19.47-.4,9.55-.87,19.38-1.4,29.49-.34,6.57-.33,13.2.02,19.88.57,10.77,1.05,20.99,1.42,30.68.24,6.22.85,12.6,1.84,19.14,1.71,11.31,3.3,22.04,4.77,32.2.87,6.03,2.08,12.4,3.63,19.12,2.27,9.81,4.41,19.21,6.42,28.21,1.47,6.58,3.24,13,5.29,19.26,3.55,10.84,6.99,21.28,10.3,31.32,1.95,5.92,4.24,11.78,6.88,17.58,4.19,9.23,8.34,18.43,12.44,27.6,3,6.73,5.95,12.72,8.85,17.98,5.05,9.17,10.11,18.49,15.19,27.96,2.85,5.33,6.28,11.03,10.27,17.08,6.11,9.28,12.07,18.34,17.86,27.18,3.07,4.7,6.41,9.19,10,13.46,7.09,8.43,14.18,16.87,21.27,25.3,4.65,5.55,9.06,10.55,13.22,15.02,9.55,10.27,18.79,20.18,27.74,29.75,1.37,1.46,2.98,2.96,4.85,4.5,10.01,8.26,19.64,16.24,28.89,23.95,13.9,11.58,28.67,22.19,43.34,33.14,4.75,3.55,9.55,6.77,14.42,9.66,4.99,2.95,9.99,5.88,15,8.77,5.15,3.07,10.3,6.11,15.46,9.12,5.05,2.95,10.32,5.77,15.83,8.44,12.49,6.08,24.99,12.13,37.51,18.14,4.13,1.99,8.42,3.65,12.67,5.38,9.94,3.99,19.88,7.99,29.82,11.98,6.29,2.53,12.58,4.73,18.86,6.58,8.7,2.57,17.5,5.13,26.41,7.68,3.47,1.06,7.02,2.12,10.66,3.18,3.43.99,7.03,1.88,10.8,2.65,12.99,2.68,25.98,5.31,38.99,7.88,6.45,1.28,13.03,2.35,19.73,3.22,10.8,1.41,21.6,2.81,32.4,4.2,6.55.85,13.19,1.4,19.92,1.66,11.09.43,22.18.89,33.27,1.38,6.8.3,13.46.31,19.98.04,7.83-.32,15.66-.66,23.49-1.03,12.66-.33,20.92-.75,24.77-1.26,12.94-1.75,25.89-3.47,38.84-5.17,6.83-.9,13.41-1.98,19.73-3.24,7.83-1.55,15.65-3.14,23.46-4.77,8.54-1.74,17.29-3.25,25.45-5.64,14.18-4.16,28.37-8.29,42.58-12.4,1.99-.57,3.88-1.22,5.69-1.94,12.61-5.05,25.21-10.12,37.81-15.21,6.16-2.48,12.26-5.17,18.29-8.06,11.58-5.54,23.16-11.08,34.73-16.63,1.66-.79,2.83-1.39,3.52-1.79,7.35-4.25,22.86-13.35,46.53-27.31,10.98-8.21,21.97-16.44,32.98-24.7,14.78-11.09,28.9-23.21,42.97-34.95,4.79-3.99,8.99-7.92,12.6-11.79,13.49-14.41,27.24-28.85,39.94-44.06,6.07-7.27,12.06-14.41,17.98-21.44,3.61-4.28,6.94-8.73,9.99-13.36,5.76-8.76,11.62-17.67,17.58-26.72,3.95-6.01,7.38-11.68,10.27-17.01,5.34-9.86,10.68-19.71,16.03-29.54,2.92-5.37,5.86-11.34,8.81-17.91,4.34-9.66,8.54-19.05,12.61-28.17,2.85-6.39,5.25-12.52,7.18-18.37,3.35-10.13,6.72-20.54,10.11-31.22,1.85-5.83,3.53-12.1,5.04-18.82,3.31-14.78,7.3-29.96,9.57-45.01,1.55-10.26,3.17-21.12,4.84-32.58.95-6.54,1.59-13.17,1.92-19.89.5-10.48.99-20.65,1.46-30.52.32-6.66.32-13.32,0-19.97-.51-10.65-1.02-21.31-1.54-31.96-.33-6.95-.96-13.23-1.87-18.84-1.54-9.49-2.96-19.22-4.26-29.21-.67-5.17-1.44-9.67-2.31-13.51-2.73-12.12-5.5-24.29-8.29-36.5-1.49-6.52-3.26-12.94-5.33-19.26-3.3-10.11-6.62-20.21-9.96-30.3-2.03-6.15-4.39-12.2-7.08-18.16-4.21-9.33-8.42-18.67-12.63-28-2.77-6.13-5.73-12.1-8.88-17.92-5.39-9.93-10.64-19.56-15.74-28.89-3.13-5.72-6.57-11.41-10.32-17.07-5.8-8.74-11.52-17.43-17.16-26.06-2.97-4.56-6.19-8.9-9.65-13.01-7.09-8.41-14.17-16.82-21.24-25.25-13.07-15.57-27.36-30.24-41.25-45.08-1.25-1.34-2.58-2.6-3.99-3.77-12.3-10.2-24.6-20.4-36.9-30.6-1.89-1.56-4.82-3.79-8.79-6.68-8.93-6.75-17.88-13.47-26.85-20.17-5.05-3.77-10.31-7.27-15.77-10.49-9.53-5.63-19.1-11.25-28.7-16.87-6.03-3.53-11.87-6.66-17.52-9.39-10.51-5.07-20.59-9.95-30.24-14.64-5.76-2.79-11.85-5.48-18.27-8.07-10.57-4.26-20.86-8.4-30.87-12.42-6.21-2.5-12.5-4.68-18.87-6.55-10.06-2.95-20.11-5.89-30.15-8.8-5.07-1.49-10.04-3.14-15.19-4.19-13.26-2.7-26.54-5.39-39.85-8.08-6.47-1.31-13.03-2.39-19.7-3.26-10.19-1.33-20.84-2.74-31.94-4.23-6.69-.9-13.32-1.5-19.89-1.79-10.74-.49-21.86-.98-33.35-1.45-6.95-.29-13.39-.34-19.33-.17-6.43.19-12.87.47-19.31.82Z"/>
  <ellipse class="cls-1" cx="649" cy="613" rx="649" ry="613"/>
  <path class="cls-5" d="M403.34,197.86c-1.01.99-2.2,1.71-3.59,2.16.95-1.26,2.14-1.98,3.59-2.16Z"/>
  <path class="cls-4" d="M496.59,469.3c.21,1.17-.31,2.19-1.56,3.05-.26.19-.48.44-.64.72-.58,1.1-1.36,2.01-2.34,2.74-1.15.85-2,1.64-2.54,2.39-1.55,2.11-3.21,4.17-4.98,6.17-.1.11-.16.24-.17.38-.02.15-.03.31-.03.47,0,.11-.1.2-.21.19-.02,0-.04,0-.06-.01-.47-.19-.71-.09-.7.3,0,.39-.18.61-.56.68-.09.01-.19.02-.28.01-.18-.01-.32.06-.42.21-.77,1.21-1.6,2.34-2.49,3.39-1.98,2.34-4.22,4.42-6.72,6.25l23.7-26.94Z"/>
  <path class="cls-5" d="M1069.3,576.71l9.39,7.53c-.14.1-.33.09-.58-.04-3.29-2.09-6.22-4.58-8.81-7.49Z"/>
  <path class="cls-6" d="M871.22,620.47c7.18,2.04,14.5,3.82,21.21,6.58,11.27,4.64,21.57,9.87,30.91,15.7,9.52,5.93,18.3,12.97,26.19,21.13,2.61,2.71,5.28,5.18,7.65,8.12,4.57,5.67,10.11,11.16,13.8,17.16,2.61,4.23,5.08,8.47,7.43,12.71,1.35,2.46,3.97,5.49,4.87,8.11,1.57,4.57,3.21,9.14,4.92,13.72,2.15,5.73,3.66,10.33,4.55,13.8,6.03,23.64,7.8,48.49,2.83,72.11-1.5,7.13-3.47,15.06-6.03,22.03-4.16,11.37-8.52,21.25-13.08,29.62-4.8,8.83-11.15,17.6-19.04,26.32-5.75,6.78-10.84,12.06-15.25,15.85-4.65,3.99-10.65,8.46-18.01,13.41-3.49,2.35-6.93,4.46-10.31,6.31-4.63,2.53-8.19,4.28-10.7,5.25-6.72,2.59-13.47,5.84-20.05,7.63-10.49,2.86-17.36,4.46-20.61,4.79-8.86.89-18.24,2.12-26.35,2.26-10.74.19-20.86-.57-30.35-2.28-4.74-.85-11.53-2.61-20.36-5.3-1.58-.48-3.03-1-4.36-1.56-1.33-.55-2.63-1.07-3.91-1.54-1.58-.69-3.14-1.37-4.68-2.04-1.11-.48-2.71-1.09-4.78-1.82-3.35-1.19-6.42-2.63-9.19-4.32-4.67-2.86-10.61-6.63-17.82-11.3-2.23-1.45-4.45-3.04-6.65-4.77-2.26-1.77-4.36-3.49-6.31-5.16-21.8-18.65-38.27-42.96-47.47-70.02-3.22-9.46-5.8-20.36-7.74-32.71-.88-5.61-1.34-11-1.37-16.17-.05-7.63.16-13.09.63-16.36,1.08-7.45,1.59-14.95,3.27-22.11.88-3.76,1.64-7.32,2.96-11.01,1.84-5.12,3.39-10.68,5.35-15.35,5.7-13.63,12.68-26.88,21.39-39.01,1.09-1.52,2.66-3.39,4.69-5.61,2.24-2.43,4.24-5.14,6.49-7.38,9.96-9.94,17.04-16.69,27.84-23.68,13.71-9.31,28.61-16.1,44.7-20.39,20.43-5.43,40.52-7.47,60.27-6.1,5.88.41,13.37,1.53,22.47,3.38ZM807.98,671.33c-2-.11-4.03.3-6.09,1.21-3.93.88-7.27,1.91-10.02,3.09-2.97,1.27-6.24,2.78-9.81,4.52-3.73,1.81-6.86,3.57-9.39,5.26-9.26,6.18-17.4,13.29-24.42,22.18-3.89,4.93-6.98,9.22-9.27,12.87-3.45,5.49-6.63,11.82-9.56,18.98-5.61,13.73-7.99,28-7.16,42.81.17,2.99.36,6,.57,9.01.22,3.09.68,6.05,1.37,8.88,1.6,6.52,3.24,12.73,4.92,18.64,2.37,8.31,6.13,15.57,11.06,22.46,2.17,3.03,4.35,6.07,6.53,9.12,6.4,8.94,14.16,15.03,23.31,21.41,2.8,1.95,6.05,3.91,9.76,5.87,3.79,2.01,7.28,3.7,10.47,5.07,10.7,4.63,20.33,7.26,28.88,7.91,8.06.61,18.7.42,31.93-.58,2.97-.23,5.87-.79,8.7-1.7,2.55-.83,5.09-1.53,7.6-2.1,4.69-1.08,9.28-2.78,13.75-5.09,3.32-1.72,6.59-3.25,10.05-4.72,2.31-.99,4.73-2.33,7.28-4.02,12.56-8.37,22.93-18.89,31.11-31.56,3.82-5.94,6.64-10.66,9.02-16.61,2.96-7.39,5.23-14.5,6.81-21.31,4.7-20.34,2.42-42.45-4.73-62.09-1.5-4.11-3.44-8.36-5.81-12.77-3.22-5.99-5.7-10.09-7.43-12.3-2.11-2.7-4.1-5.26-5.95-7.68-2.19-2.85-4.41-5.39-6.68-7.62-7.7-7.55-16.72-14.03-26.03-19.65-.8-.48-1.5-.4-2.13-1.1-.23-.26-.51-.45-.84-.56-1.19-.43-2.27-1.01-3.25-1.74-.26-.19-.55-.31-.87-.34-.55-.06-1.04-.27-1.46-.63-.23-.2-.49-.36-.77-.48-1.23-.53-2.48-1.04-3.73-1.54-6.75-2.72-14.07-4.48-21.98-5.28-3.91-.39-7.9-.72-11.99-.97-8.91-.56-17.25-.17-25.03,1.16-.86.15-2.31.5-4.34,1.06-1.44.39-2.9.7-4.38.93Z"/>
  <path class="cls-5" d="M807.98,671.33l-6.09,1.21c2.06-.91,4.09-1.32,6.09-1.21Z"/>
  <circle class="cls-7" cx="834.15" cy="778.99" r="164.72"/>
  <ellipse class="cls-2" cx="833.04" cy="776.81" rx="117.26" ry="114.59"/>
  <path class="cls-8" d="M866.42,712.07c3.14,4.09,5.13,8.76,5.98,13.99,1.74,10.78,1.21,21.1-1.6,30.95-1.41,4.95-3.95,9.62-7.63,14.03-1.12,1.35-2.27,2.85-3.44,4.5-1.46,2.06-3.35,3.95-5.02,5.85-4.93,5.61-9.67,11.15-14.2,16.62-3.49,4.22-6.35,8.53-10.23,12.71-2.15,2.32-4.12,4.98-5.89,7.97-.15.24-.07.55.17.7.06.04.12.06.19.07,3,.49,5.71.76,8.14.83,14.07.36,27.83.45,41.29.28,3.4-.05,3.42,2.67,2.92,5.19-.66,3.31-1.26,6.44-1.31,9.93-.05,3.59.82,8.53-4.56,8.77-19.7.89-39.46.98-59.28.27-6.1-.22-11.67-.69-16.7-1.42-2.43-.36-2.55-4.02-2.29-5.83,1.77-12.38,5.88-23.9,12.35-34.55,5.91-8.57,10.16-14.29,12.73-17.14,5.03-5.57,9.91-11.27,14.63-17.1,4.24-5.23,7.78-10.87,10.62-16.9.58-2.23,1.12-4.46,1.63-6.68.57-2.46.85-4.62.86-6.48.02-2.74-.21-5.66-.69-8.75-.43-2.83-1.74-4.81-3.93-5.95-4.73-2.46-9.54-2.76-14.43-.9-2.13.81-3.4,2.46-3.83,4.95-.55,3.18-.94,6.33-1.19,9.46-.34,4.24-1.53,8.95-7.03,8.56-3.31-.24-6.59-.63-9.85-1.18-2.65-.45-4.77-.1-7.33.21-1.09.13-2.19-.22-3.3-1.07-.33-6.73.71-13.41,3.13-20.04.99-2.71,2.35-5.21,4.1-7.5,3.96-5.17,7.76-10.04,13.45-13.31,2.99-1.72,6.63-2.96,10.92-3.72,9.76-1.72,19.28-.45,28.57,3.81,3.38,1.55,6.16,3.41,8.35,5.58,1.6,1.59,2.83,2.68,3.7,3.29Z"/>
  <path class="cls-7" d="M834.33,320.8l-11.04,137.86-176.09,69.68-129.3-80.64-86.15,98.82,121.42,106.59-24.96,173.04-151.34,66.71,57.4,131.19,154.26-59.42,126.14,106.11-.1,67.59c-209.35,9.73-404.65-98.07-515.8-285.56-71.89-180.79-45.81-334.63,17.67-460.29C402.73,23.67,1070.79-15.6,1197.48,581.93l-107.26,8.03-112.78-91.6,2.36-176.18-145.48-1.38Z"/>
</svg>